<svg xmlns="http://www.w3.org/2000/svg" viewBox="0 0 360 60">
  <defs>
    <style>
      .bus{fill:#4A8EF7}
      .txt{fill:#4A8EF7;font-family:'Segoe UI',Arial,sans-serif;font-weight:800;font-size:38px;letter-spacing:3px}
    </style>
  </defs>
  <!-- Bus icon forming S -->
  <g transform="translate(2,6) scale(0.52)">
    <path d="M10,40 L10,70 Q10,85 25,85 L75,85 Q90,85 90,70 L90,30 Q90,15 75,15 L35,15 Q10,15 10,40Z" class="bus"/>
    <rect x="18" y="26" width="20" height="18" rx="3" fill="#fff"/>
    <rect x="44" y="26" width="20" height="18" rx="3" fill="#fff"/>
    <rect x="70" y="26" width="12" height="18" rx="3" fill="#fff"/>
    <path d="M70,26 Q82,26 82,34 L82,44 L70,44Z" fill="#fff" opacity="0.7"/>
    <circle cx="30" cy="85" r="8" fill="#fff"/>
    <circle cx="30" cy="85" r="4" class="bus"/>
    <circle cx="70" cy="85" r="8" fill="#fff"/>
    <circle cx="70" cy="85" r="4" class="bus"/>
    <line x1="0" y1="93" x2="95" y2="93" stroke="#4A8EF7" stroke-width="2" opacity="0.3"/>
  </g>
  <text x="56" y="45" class="txt">ERV<tspan>0</tspan>S  BOT</text>
  <g transform="translate(135.5,2)">
    <circle cx="0" cy="5" r="4.5" fill="none" stroke="#4A8EF7" stroke-width="2"/>
    <circle cx="0" cy="5" r="1.5" fill="#4A8EF7"/>
    <path d="M0,9 L0,14" stroke="#4A8EF7" stroke-width="1.5"/>
  </g>
</svg>
